<svg width="82" height="82" viewBox="0 0 82 82" fill="none" xmlns="http://www.w3.org/2000/svg">
<circle cx="41" cy="41" r="41" fill="white"/>
<path d="M38 20H15V41.4772C20.4762 40.9265 32.0857 40.9816 34.7143 45.6074C38 51.3897 35.5357 62.9544 31.4286 62.9544C27.3214 62.9544 19.9286 72.0409 15 58.8242" stroke="#0ABDE3" stroke-width="5"/>
<path d="M71.5 41.5C71.5 47.8356 69.7661 53.4595 67.0937 57.4276C64.411 61.411 60.9722 63.5 57.5 63.5C54.0278 63.5 50.589 61.411 47.9063 57.4276C45.2339 53.4595 43.5 47.8356 43.5 41.5C43.5 35.1644 45.2339 29.5405 47.9063 25.5724C50.589 21.589 54.0278 19.5 57.5 19.5C60.9722 19.5 64.411 21.589 67.0937 25.5724C69.7661 29.5405 71.5 35.1644 71.5 41.5Z" stroke="#0ABDE3" stroke-width="5"/>
</svg>
